<?xml version="1.0" standalone="no"?>
<!DOCTYPE svg PUBLIC "-//W3C//DTD SVG 20010904//EN"
 "http://www.w3.org/TR/2001/REC-SVG-20010904/DTD/svg10.dtd">
<svg version="1.0" xmlns="http://www.w3.org/2000/svg"
 width="920.000000pt" height="1028.000000pt" viewBox="0 0 920.000000 1028.000000"
 preserveAspectRatio="xMidYMid meet">
<metadata>
Created by potrace 1.15, written by Peter Selinger 2001-2017
</metadata>
<g transform="translate(0.000000,1028.000000) scale(0.100000,-0.100000)"
fill="#000000" stroke="none">
<path d="M2442 9865 c-101 -28 -176 -97 -213 -195 -17 -46 -19 -79 -19 -395
l0 -344 -562 -4 c-625 -3 -589 0 -730 -74 -135 -71 -246 -209 -295 -368 -17
-58 -18 -185 -18 -3375 l0 -3315 22 -70 c50 -157 164 -294 303 -364 157 -78
-185 -72 3705 -69 3218 3 3484 4 3527 20 180 64 300 168 376 323 61 127 57
-142 57 3480 l0 3320 -24 73 c-58 179 -200 324 -381 390 l-75 27 -632 3 -632
3 -3 352 -3 352 -26 56 c-54 116 -159 183 -285 183 -124 1 -228 -66 -286 -184
-22 -44 -23 -55 -26 -402 l-3 -358 -1689 0 -1689 0 -3 353 -3 352 -28 56 c-68
140 -222 213 -365 174z m-232 -1565 c0 -240 9 -282 81 -363 59 -68 135 -101
229 -102 93 0 154 26 222 92 82 81 91 114 97 367 l6 220 43 -49 c166 -189 155
-479 -24 -659 -195 -195 -522 -186 -703 20 -130 148 -159 371 -71 545 24 45
97 139 110 139 6 0 10 -80 10 -210z m4040 -285 c64 -131 210 -206 343 -176 78
17 156 67 194 125 55 81 63 126 63 350 l0 200 39 -38 c75 -73 131 -212 131
-323 0 -295 -266 -527 -554 -483 -193 29 -353 171 -401 355 -37 142 -7 294 81
411 72 96 68 102 74 -148 5 -211 7 -226 30 -273z m1868 -3692 l-3 -2328 -22
-47 c-30 -66 -105 -143 -172 -175 l-56 -28 -3210 -3 c-3169 -2 -3211 -2 -3275
17 -144 44 -248 151 -286 296 -11 41 -14 459 -14 2323 l0 2272 3520 0 3520 0
-2 -2327z"/>
<path d="M2096 6120 c-34 -11 -82 -54 -102 -92 -21 -41 -21 -716 1 -757 20
-39 69 -78 113 -91 22 -6 165 -10 352 -10 382 1 402 6 451 103 19 35 20 58 17
391 l-3 353 -29 37 c-56 73 -68 76 -441 75 -181 0 -343 -5 -359 -9z"/>
<path d="M3515 6111 c-46 -21 -79 -54 -94 -94 -17 -45 -15 -699 3 -740 17 -42
66 -83 114 -97 49 -13 645 -13 694 0 48 14 97 55 114 97 18 41 20 695 3 740
-15 40 -48 73 -94 94 -36 17 -70 19 -370 19 -300 0 -334 -2 -370 -19z"/>
<path d="M4944 6111 c-23 -10 -54 -36 -70 -57 l-29 -37 -3 -356 c-2 -353 -2
-356 20 -395 28 -48 63 -75 114 -86 55 -13 640 -12 686 0 21 6 51 22 68 37 60
50 60 49 60 434 0 336 -1 353 -21 388 -11 20 -36 48 -56 61 l-36 25 -346 3
c-322 2 -349 1 -387 -17z"/>
<path d="M6387 6116 c-50 -18 -76 -42 -98 -91 -17 -36 -19 -71 -19 -374 0
-321 1 -336 21 -379 13 -26 38 -54 62 -70 l41 -27 350 0 c351 0 351 0 392 24
24 13 52 41 65 65 24 41 24 41 24 386 0 391 -1 397 -78 448 l-40 27 -341 2
c-270 2 -349 0 -379 -11z"/>
<path d="M2095 4688 c-36 -13 -82 -53 -101 -90 -21 -41 -21 -716 1 -757 20
-39 69 -78 113 -91 22 -6 165 -10 352 -10 382 1 402 6 451 103 19 35 20 58 17
391 l-3 353 -29 37 c-56 73 -68 76 -441 75 -202 0 -342 -5 -360 -11z"/>
<path d="M3520 4693 c-35 -13 -72 -47 -90 -83 -19 -37 -20 -60 -20 -386 l0
-347 25 -43 c16 -28 39 -49 68 -63 41 -20 59 -21 382 -21 323 0 341 1 382 21
29 14 52 35 69 64 l25 43 -3 359 -3 360 -27 35 c-51 67 -56 68 -445 67 -191 0
-355 -3 -363 -6z"/>
<path d="M4944 4681 c-23 -10 -54 -36 -70 -57 l-29 -37 -3 -353 c-3 -333 -2
-356 17 -391 49 -97 69 -102 451 -103 187 0 330 4 352 10 44 13 93 52 113 91
22 41 22 716 1 757 -21 41 -68 81 -107 92 -19 6 -176 10 -359 10 -296 0 -329
-2 -366 -19z"/>
<path d="M6387 4686 c-50 -18 -76 -42 -98 -91 -17 -36 -19 -71 -19 -374 0
-321 1 -336 21 -379 13 -26 38 -54 62 -70 l40 -27 321 -3 c369 -4 405 0 459
55 55 54 59 91 55 453 -3 357 -6 368 -81 418 l-40 27 -341 2 c-270 2 -349 0
-379 -11z"/>
<path d="M2069 3197 c-27 -15 -52 -38 -66 -63 -22 -38 -23 -45 -23 -395 0
-354 0 -356 23 -390 12 -18 38 -44 57 -57 l34 -23 365 3 366 3 34 24 c68 49
71 66 71 443 0 214 -4 347 -11 365 -5 15 -22 41 -37 57 -51 55 -62 56 -430 56
-335 0 -339 0 -383 -23z"/>
<path d="M3520 3209 c-32 -13 -78 -56 -96 -91 -11 -22 -14 -95 -14 -373 0
-387 1 -392 68 -443 l35 -27 372 0 372 0 35 27 c67 51 68 56 68 443 0 332 -1
349 -21 384 -11 20 -36 48 -56 61 l-36 25 -351 2 c-219 1 -360 -2 -376 -8z"/>
<path d="M4945 3206 c-37 -17 -80 -62 -94 -99 -7 -18 -11 -151 -11 -365 0
-377 3 -394 71 -443 l34 -24 372 0 c361 0 372 1 400 21 15 11 38 36 51 54 22
33 22 36 22 387 0 400 0 403 -73 451 l-41 27 -350 2 c-278 2 -357 0 -381 -11z"/>
</g>
</svg>
